<?xml version="1.0" standalone="no"?>
<!DOCTYPE svg PUBLIC "-//W3C//DTD SVG 20010904//EN"
 "http://www.w3.org/TR/2001/REC-SVG-20010904/DTD/svg10.dtd">
<svg version="1.0" xmlns="http://www.w3.org/2000/svg"
 width="500.000000pt" height="500.000000pt" viewBox="0 0 500.000000 500.000000"
 preserveAspectRatio="xMidYMid meet">
<metadata>
Created by potrace 1.14, written by Peter Selinger 2001-2017
</metadata>
<g transform="translate(0.000000,500.000000) scale(0.100000,-0.100000)"
fill="#000000" stroke="none">
<path d="M1261 4976 c-8 -13 -31 -32 -53 -42 -70 -31 -128 -124 -154 -243 -19
-92 -17 -174 6 -266 11 -44 17 -82 13 -86 -5 -4 -57 -12 -118 -18 -172 -16
-275 -53 -395 -142 -72 -53 -110 -93 -145 -153 -58 -100 -42 -129 69 -119 55
4 86 1 127 -12 76 -25 139 -62 139 -84 0 -22 -26 -46 -60 -56 -14 -4 -69 -30
-123 -58 -137 -71 -272 -202 -336 -327 -34 -65 -80 -207 -87 -266 -10 -82 30
-101 143 -68 31 9 40 -18 23 -75 -59 -210 -88 -440 -91 -707 -1 -157 3 -199
32 -306 16 -61 62 -19 52 48 -3 20 1 35 11 43 9 8 16 26 16 42 0 38 27 39 40
2 6 -16 15 -36 21 -47 9 -15 6 -25 -11 -48 -21 -28 -21 -30 -4 -49 17 -19 17
-21 -3 -47 -20 -27 -20 -29 -3 -52 18 -23 18 -25 0 -50 -13 -19 -15 -30 -7
-48 8 -18 6 -27 -11 -45 -12 -13 -22 -30 -22 -39 0 -41 45 -183 85 -266 25
-51 45 -97 45 -101 0 -19 104 -209 140 -257 22 -29 40 -58 40 -64 0 -5 4 -10
8 -10 4 0 16 -15 27 -32 33 -56 131 -173 179 -211 24 -21 62 -54 83 -75 124
-121 295 -262 318 -262 14 0 25 6 25 13 0 11 71 112 133 188 62 75 205 224
251 261 l50 40 70 -7 c39 -3 82 -10 96 -15 14 -5 42 -11 62 -15 20 -3 47 -14
59 -24 l23 -19 -24 -47 c-14 -26 -59 -85 -100 -130 -123 -133 -200 -240 -275
-379 -25 -48 -25 -50 -8 -67 22 -21 153 -69 207 -76 37 -5 39 -4 32 18 -3 13
-9 70 -13 126 l-6 102 54 106 c29 58 63 117 74 132 l21 26 110 -27 c189 -46
255 -65 308 -90 28 -13 83 -34 121 -46 39 -12 99 -37 135 -55 36 -18 81 -38
101 -44 20 -6 50 -22 67 -34 l30 -23 -26 -11 c-35 -14 -120 -40 -152 -46 -76
-14 -195 -52 -265 -86 -44 -21 -102 -48 -130 -60 -78 -35 -94 -48 -88 -71 5
-20 12 -20 295 -20 244 0 292 2 304 15 9 9 36 16 67 16 126 4 225 18 278 41
39 17 45 24 41 44 -2 13 1 30 7 38 8 10 8 21 1 41 -8 22 -7 33 5 51 8 13 15
36 15 52 0 15 7 37 15 48 8 10 15 26 15 35 0 18 31 49 48 49 8 0 8 -8 0 -30
-5 -17 -8 -40 -5 -52 4 -12 -2 -32 -15 -49 -18 -24 -19 -31 -8 -44 11 -13 11
-23 1 -52 -11 -30 -11 -37 2 -50 13 -13 24 -14 81 -3 69 13 88 25 84 56 -2 17
7 88 18 141 2 12 16 35 30 52 19 23 34 31 60 31 41 0 62 -28 73 -97 l7 -48 37
3 c42 3 112 41 202 110 339 262 543 489 716 797 146 259 215 473 269 828 22
139 26 404 10 507 -5 30 -14 93 -19 140 -6 47 -17 110 -26 140 -8 30 -20 80
-26 110 -10 49 -53 177 -96 285 -20 49 -126 269 -150 310 -10 17 -24 34 -30
38 -21 13 -15 45 11 62 16 11 59 18 129 22 58 3 111 9 118 13 25 16 -4 60 -91
140 -128 117 -143 153 -93 219 23 30 28 46 27 91 -2 145 -93 299 -242 408
-118 87 -219 132 -352 158 -41 7 -80 20 -87 27 -20 20 9 53 68 78 69 30 299
199 299 220 0 5 -530 9 -1294 9 l-1294 0 -10 -27 c-6 -16 -32 -55 -59 -88 -63
-78 -93 -83 -161 -29 -83 67 -122 108 -122 126 0 14 -8 18 -38 18 -31 0 -41
-5 -51 -24z m1893 -1356 c67 -18 152 -57 251 -117 34 -20 2 -37 -78 -41 -39
-1 -154 -10 -254 -18 -101 -8 -187 -13 -193 -9 -17 11 -11 48 19 112 44 92 62
107 125 99 28 -3 87 -15 130 -26z m420 -306 c9 -3 16 -12 16 -19 0 -15 -113
-23 -417 -28 -155 -3 -193 -1 -193 10 0 7 12 13 28 14 97 2 312 12 392 18 132
11 156 12 174 5z m-704 -64 c0 -20 -53 -43 -123 -51 -226 -28 -447 -42 -466
-30 -7 5 -9 11 -5 13 16 9 137 28 254 39 63 6 153 16 200 23 109 17 140 18
140 6z m-600 -118 c0 -17 -48 -31 -160 -46 -131 -17 -165 -20 -235 -17 l-50 2
50 15 c128 39 395 69 395 46z m-431 -99 c21 -5 20 -7 -15 -19 -22 -8 -82 -18
-134 -24 -52 -5 -124 -13 -159 -16 -65 -7 -65 -7 -45 13 36 37 271 68 353 46z
m-400 -102 c17 -11 -62 -36 -144 -46 -94 -12 -155 -28 -175 -47 -11 -10 -37
-25 -58 -32 -47 -17 -208 -31 -215 -19 -3 5 38 19 91 32 95 22 196 56 219 73
41 32 249 60 282 39z m2738 -29 c13 -9 39 -98 48 -167 3 -27 15 -94 26 -148
19 -87 21 -125 17 -325 -4 -263 -7 -272 -71 -272 -62 0 -89 18 -112 75 -19 47
-20 71 -19 380 0 354 8 422 47 450 23 16 46 19 64 7z m-192 -39 c4 -10 7 -112
6 -228 -1 -115 3 -288 9 -384 7 -117 8 -177 1 -184 -7 -7 -24 -6 -52 2 -36 11
-43 10 -60 -5 -10 -9 -19 -27 -19 -38 0 -17 -9 -24 -43 -33 -29 -8 -62 -30
-106 -72 -69 -66 -73 -85 -19 -96 20 -5 57 -31 98 -70 47 -45 79 -66 117 -78
88 -28 117 -20 142 40 24 59 79 49 66 -11 -4 -17 -9 -71 -11 -120 -3 -48 -9
-99 -15 -113 -5 -13 -9 -35 -9 -47 0 -34 -29 -53 -93 -60 -42 -5 -66 -2 -85 8
-70 38 -184 63 -502 111 -220 33 -300 57 -300 90 0 18 54 42 117 50 68 10 162
33 199 50 35 17 104 88 104 108 0 8 11 29 25 48 96 129 91 113 150 439 17 96
19 236 5 355 -5 44 -12 105 -15 135 -9 79 1 89 110 104 133 20 171 19 180 -1z
m-1259 -163 c7 -7 7 -37 1 -88 -11 -100 -2 -317 17 -408 9 -39 27 -104 40
-144 l25 -72 -25 -23 c-13 -12 -24 -25 -24 -28 0 -19 68 -102 94 -116 17 -9
70 -56 118 -106 94 -96 108 -128 63 -139 -27 -7 -198 34 -270 64 -11 5 -36 15
-55 23 -19 8 -57 23 -85 33 -27 9 -54 21 -59 26 -21 17 -65 8 -85 -18 -55 -70
-51 -209 11 -374 54 -147 120 -233 237 -309 l78 -52 149 6 c141 6 216 14 309
36 22 5 81 18 130 29 116 27 288 87 400 139 48 23 75 32 75 26 0 -3 -7 -22
-16 -44 -14 -35 -24 -43 -122 -89 -59 -28 -130 -55 -157 -61 -92 -17 -179 -31
-265 -42 -47 -5 -105 -15 -130 -20 -141 -32 -224 -31 -445 2 -33 5 -130 13
-215 18 -203 12 -360 41 -511 96 -134 49 -165 71 -155 115 19 81 18 94 -8 119
-43 40 -33 82 25 112 l39 19 31 -30 c39 -37 44 -37 66 -4 11 18 16 44 15 82
-1 32 2 62 6 68 4 7 38 26 75 44 52 24 76 31 101 26 23 -5 52 2 102 22 59 24
71 33 80 62 6 18 20 41 31 49 17 15 18 18 4 42 -14 25 -13 29 21 70 26 31 50
48 85 59 59 18 65 41 25 89 -45 54 -108 43 -163 -29 -13 -17 -41 -51 -61 -74
-23 -26 -38 -54 -38 -69 0 -42 -27 -60 -74 -52 -69 12 -309 13 -331 2 -11 -6
-33 -24 -48 -40 -32 -35 -33 -34 -80 58 -35 68 -42 187 -12 199 8 3 59 -17
113 -44 53 -27 136 -65 184 -85 96 -40 120 -38 132 11 7 28 8 25 -86 196 -50
92 -94 191 -113 256 -11 38 4 62 63 100 70 44 160 117 185 149 29 37 51 45
242 84 189 39 245 45 261 29z m-2154 -200 c-1 -14 -9 -28 -17 -33 -8 -4 -15
-21 -15 -36 0 -19 -8 -34 -22 -43 -21 -14 -22 -18 -11 -49 7 -19 10 -44 7 -55
-3 -12 -1 -32 6 -43 6 -12 8 -26 5 -31 -9 -14 -33 12 -41 44 -3 14 -10 29 -15
32 -16 9 -11 140 6 154 8 7 15 20 15 29 1 32 37 62 70 57 10 -1 14 -11 12 -26z
m226 -384 c64 -66 76 -84 43 -66 -11 5 -38 10 -60 10 -35 0 -41 -3 -47 -25 -3
-14 -4 -34 -1 -44 3 -13 -2 -21 -16 -25 -28 -7 -56 10 -63 38 -8 33 3 111 21
146 24 47 52 40 123 -34z m148 -101 c58 -20 114 -55 114 -70 0 -16 -52 -55
-73 -55 -9 0 -17 14 -22 37 -4 22 -20 50 -40 70 -37 37 -36 38 21 18z m-70
-70 c25 -16 31 -44 13 -62 -5 -5 -13 -32 -17 -58 -4 -27 -12 -50 -19 -52 -18
-6 -53 34 -53 62 0 14 -11 43 -25 65 -39 62 -35 74 26 67 28 -4 62 -13 75 -22z
m3102 -16 c50 -19 6 -66 -51 -55 -57 11 -75 44 -34 64 21 10 38 8 85 -9z
m-1237 -605 c80 -24 189 -87 238 -139 59 -63 52 -75 -48 -75 -92 0 -156 22
-209 73 -36 34 -95 140 -85 151 11 10 47 7 104 -10z m799 -559 c25 -30 4 -45
-60 -45 -43 0 -81 -8 -126 -26 -67 -26 -93 -26 -128 1 -33 25 -13 45 46 45 29
0 71 5 93 11 122 32 158 35 175 14z"/>
<path d="M4146 2482 c-22 -37 -47 -137 -41 -171 8 -47 40 -101 60 -101 23 0
45 42 52 98 6 50 -11 146 -30 170 -11 14 -33 16 -41 4z"/>
<path d="M2302 2138 c-19 -19 -15 -66 7 -73 35 -11 52 5 49 44 -2 27 -8 37
-23 39 -11 1 -26 -3 -33 -10z"/>
<path d="M2750 1781 c-8 -16 -6 -23 11 -35 37 -25 80 5 52 36 -21 24 -50 23
-63 -1z"/>
<path d="M2178 1310 l-4 -40 39 0 c35 0 37 1 23 16 -9 8 -16 26 -16 40 0 17
-6 24 -19 24 -15 0 -20 -9 -23 -40z"/>
<path d="M2094 1195 c-3 -8 0 -23 8 -33 10 -15 18 -17 36 -11 12 5 22 14 22
22 0 32 -55 51 -66 22z"/>
<path d="M279 1889 c-2 -13 -2 -42 1 -64 l5 -40 8 42 c4 23 3 52 -1 64 l-9 23
-4 -25z"/>
<path d="M300 1768 c0 -7 5 -20 10 -28 8 -12 10 -9 10 13 0 15 -4 27 -10 27
-5 0 -10 -6 -10 -12z"/>
</g>
</svg>
